<?xml version="1.0" standalone="no"?>
<!DOCTYPE svg PUBLIC "-//W3C//DTD SVG 20010904//EN"
 "http://www.w3.org/TR/2001/REC-SVG-20010904/DTD/svg10.dtd">
<svg version="1.0" xmlns="http://www.w3.org/2000/svg"
 width="407.000000pt" height="407.000000pt" viewBox="0 0 407.000000 407.000000"
 preserveAspectRatio="xMidYMid meet">
<metadata>
Created by potrace 1.14, written by Peter Selinger 2001-2017
</metadata>
<g transform="translate(0.000000,407.000000) scale(0.100000,-0.100000)"
fill="#000000" stroke="none">
<path d="M2007 4064 c-1 -1 -47 -5 -102 -8 -55 -3 -111 -8 -125 -10 -14 -3
-43 -7 -65 -10 -22 -3 -80 -14 -130 -25 -535 -120 -1007 -464 -1298 -946 -9
-16 -44 -84 -76 -150 -270 -551 -272 -1209 -6 -1759 45 -94 165 -299 184 -316
3 -3 26 -32 51 -65 71 -94 265 -284 377 -367 123 -92 241 -162 393 -233 98
-47 316 -116 410 -131 19 -3 38 -8 41 -10 4 -2 31 -6 60 -10 30 -3 58 -9 63
-12 5 -3 100 -6 210 -8 269 -3 444 21 671 95 373 120 724 363 960 665 17 21
35 44 40 50 26 28 128 191 169 269 118 224 197 482 223 722 22 197 2 519 -43
699 -166 664 -635 1194 -1266 1430 -79 29 -250 78 -318 91 -27 5 -100 17 -128
21 -50 7 -291 21 -295 18z"/>
</g>
</svg>
